<svg height="512pt" viewBox="0 0 512 512" width="512pt" xmlns="http://www.w3.org/2000/svg"><path d="m462.371094 110.683594v-61.054688h-61.058594c0 23.265625-18.859375 42.128906-42.128906 42.128906-23.265625 0-42.128906-18.863281-42.128906-42.128906h-61.054688l-49.960938 118.285156 49.960938 88.085938 103.128906 76.433594 103.242188-76.433594v-61.058594c23.265625 0 42.128906-18.859375 42.128906-42.128906 0-23.265625-18.863281-42.128906-42.128906-42.128906zm0 0" fill="#42c3e2"/><path d="m256 256-98.394531-82.121094-107.976563 82.121094v61.058594c-23.265625 0-42.128906 18.859375-42.128906 42.128906 0 23.265625 18.863281 42.128906 42.128906 42.128906v61.054688h61.058594c0-23.265625 18.859375-42.128906 42.128906-42.128906 23.265625 0 42.128906 18.863281 42.128906 42.128906h61.054688l48.640625-82.121094zm0 0" fill="#b6a4ff"/><path d="m462.371094 317.058594v-61.058594h-61.058594c0 23.265625-18.859375 42.128906-42.128906 42.128906-23.265625 0-42.125-18.863281-42.125-42.128906h-61.058594v61.058594c-23.265625 0-42.128906 18.859375-42.128906 42.128906 0 23.265625 18.863281 42.128906 42.128906 42.128906v61.054688h61.058594c0 23.269531 18.859375 42.128906 42.128906 42.128906 23.265625 0 42.128906-18.859375 42.128906-42.128906h61.054688v-61.054688c-23.265625 0-42.128906-18.863281-42.128906-42.128906 0-23.269531 18.863281-42.128906 42.128906-42.128906zm0 0" fill="#eb6da8"/><path d="m256 110.6875v-61.058594h-61.058594c0-23.265625-18.859375-42.128906-42.128906-42.128906-23.265625 0-42.128906 18.863281-42.128906 42.128906h-61.054688v61.058594c23.265625 0 42.128906 18.859375 42.128906 42.128906 0 23.265625-18.863281 42.128906-42.128906 42.128906v61.054688h61.058594c0-23.265625 18.859375-42.128906 42.128906-42.128906 23.265625 0 42.128906 18.863281 42.128906 42.128906h61.054688v-61.058594c23.265625 0 42.128906-18.859375 42.128906-42.128906 0-23.265625-18.863281-42.125-42.128906-42.125zm0 0" fill="#fadc60"/><path d="m469.871094 103.75v-54.121094c0-4.144531-3.359375-7.5-7.5-7.5h-61.058594c-4.140625 0-7.5 3.355469-7.5 7.5 0 19.09375-15.535156 34.628906-34.628906 34.628906s-34.628906-15.535156-34.628906-34.628906c0-4.144531-3.355469-7.5-7.5-7.5h-115.175782c-3.625-23.820312-24.246094-42.128906-49.066406-42.128906-24.816406 0-45.4375 18.308594-49.0625 42.128906h-54.121094c-4.140625 0-7.5 3.355469-7.5 7.5v61.058594c0 4.140625 3.359375 7.5 7.5 7.5 19.09375 0 34.628906 15.53125 34.628906 34.628906 0 19.09375-15.535156 34.628906-34.628906 34.628906-4.140625 0-7.5 3.355469-7.5 7.5v115.175782c-23.820312 3.625-42.128906 24.246094-42.128906 49.066406 0 24.816406 18.308594 45.4375 42.128906 49.0625v54.121094c0 4.140625 3.359375 7.5 7.5 7.5h61.058594c4.140625 0 7.5-3.359375 7.5-7.5 0-19.09375 15.535156-34.628906 34.628906-34.628906s34.628906 15.535156 34.628906 34.628906c0 4.140625 3.355469 7.5 7.5 7.5h115.175782c3.625 23.820312 24.246094 42.128906 49.066406 42.128906 24.816406 0 45.4375-18.308594 49.0625-42.128906h54.121094c4.140625 0 7.5-3.359375 7.5-7.5v-61.054688c0-4.144531-3.359375-7.5-7.5-7.5-19.09375 0-34.628906-15.535156-34.628906-34.628906 0-19.097656 15.535156-34.628906 34.628906-34.628906 4.140625 0 7.5-3.359375 7.5-7.5v-115.179688c23.820312-3.625 42.128906-24.25 42.128906-49.066406s-18.308594-45.433594-42.128906-49.0625zm-412.742188 98.128906c23.820313-3.625 42.128906-24.25 42.128906-49.066406s-18.308593-45.4375-42.128906-49.0625v-46.621094h53.558594c4.140625 0 7.5-3.359375 7.5-7.5 0-19.09375 15.53125-34.628906 34.625-34.628906s34.628906 15.535156 34.628906 34.628906c0 4.140625 3.359375 7.5 7.5 7.5h53.558594v53.558594c0 4.140625 3.359375 7.5 7.5 7.5 19.09375 0 34.628906 15.53125 34.628906 34.628906 0 19.09375-15.535156 34.628906-34.628906 34.628906-4.140625 0-7.5 3.355469-7.5 7.5v53.554688h-46.621094c-3.625-23.820312-24.246094-42.128906-49.0625-42.128906s-45.4375 18.308594-49.0625 42.128906h-46.625zm95.683594 210.863282c-24.816406 0-45.4375 18.308593-49.0625 42.128906h-46.621094v-53.554688c0-4.144531-3.359375-7.5-7.5-7.5-19.09375-.003906-34.628906-15.535156-34.628906-34.628906 0-19.097656 15.535156-34.628906 34.628906-34.628906 4.140625 0 7.5-3.359375 7.5-7.5v-53.558594h53.558594c4.140625 0 7.5-3.359375 7.5-7.5 0-19.09375 15.535156-34.628906 34.628906-34.628906s34.628906 15.535156 34.628906 34.628906c0 4.140625 3.355469 7.5 7.5 7.5h53.554688v46.621094c-23.820312 3.625-42.128906 24.246094-42.128906 49.0625s18.308594 45.4375 42.128906 49.0625v46.625h-46.621094c-3.625-23.820313-24.246094-42.128906-49.066406-42.128906zm302.058594-102.621094c-23.820313 3.625-42.128906 24.246094-42.128906 49.0625s18.308593 45.4375 42.128906 49.0625v46.625h-53.558594c-4.140625 0-7.5 3.355468-7.5 7.5 0 19.09375-15.535156 34.628906-34.628906 34.628906s-34.628906-15.535156-34.628906-34.628906c0-4.144532-3.355469-7.5-7.5-7.5h-53.554688v-53.558594c0-4.140625-3.359375-7.5-7.5-7.5-19.09375 0-34.628906-15.535156-34.628906-34.628906s15.535156-34.628906 34.628906-34.628906c4.140625 0 7.5-3.355469 7.5-7.5v-53.554688h46.621094c3.625 23.820312 24.246094 42.128906 49.0625 42.128906s45.4375-18.308594 49.0625-42.128906h46.625zm7.5-122.679688c-4.140625 0-7.5 3.359375-7.5 7.5v53.558594h-53.558594c-4.140625 0-7.5 3.355469-7.5 7.5 0 19.09375-15.535156 34.628906-34.628906 34.628906s-34.625-15.535156-34.625-34.628906c0-4.144531-3.359375-7.5-7.5-7.5h-53.558594v-46.621094c23.820312-3.625 42.128906-24.25 42.128906-49.066406s-18.308594-45.4375-42.128906-49.0625v-46.621094h46.621094c3.625 23.820313 24.246094 42.128906 49.0625 42.128906s45.4375-18.308593 49.0625-42.128906h46.625v53.558594c0 4.140625 3.355468 7.5 7.5 7.5 19.09375 0 34.628906 15.53125 34.628906 34.628906 0 19.09375-15.535156 34.625-34.628906 34.625zm0 0"/></svg>