<svg id="_x33_0" enable-background="new 0 0 64 64" height="512" viewBox="0 0 64 64" width="512" xmlns="http://www.w3.org/2000/svg"><g><g><g><path d="m39 56v6h-20v-6h14z" fill="#fcd770"/></g><g><path d="m39 46v4h-6-1l-1.15-1.15c-.54-.54-1.28-.85-2.05-.85-1.1 0-2.11.62-2.6 1.61l-.2.39h-7v-4h-8v-3.2c0-3.04 1.35-5.93 3.69-7.88 1.51-1.25 3.35-2.05 5.29-2.29l2.2-.28 2.82 5.65 4-3 4 3 2.82-5.65 2.2.28c1.94.24 3.78 1.04 5.29 2.29 1.17.98 2.09 2.18 2.72 3.53s.97 2.83.97 4.35v3.2z" fill="#fcd770"/></g><g><path d="m29 35-4 3-2.82-5.65 2.82-.35z" fill="#b4dd7f"/></g><g><path d="m35.82 32.35-2.82 5.65-4-3 4-3z" fill="#b4dd7f"/></g><g><path d="m36.82 12.84c-.73.71-1.72 1.16-2.82 1.16h-.26c-3.13 0-6.23-.59-9.14-1.76-.4-.16-.82-.24-1.25-.24-.93 0-1.76.38-2.37.98-.6.61-.98 1.45-.98 2.38v1.64h-1c-.8 0-1.52.31-2.05.81l-.63-2.53c-.21-.85-.32-1.72-.32-2.6 0-5.9 4.78-10.68 10.68-10.68h4.64c2.95 0 5.62 1.2 7.55 3.13s3.13 4.6 3.13 7.55c0 .88-.11 1.75-.32 2.6l-.63 2.53c-.53-.5-1.25-.81-2.05-.81h-1v-.93c0-1.18-.42-2.33-1.18-3.23z" fill="#656d78"/></g><g><path d="m62 12v10c0 1.1-.9 2-2 2h-7.76c-.76 0-1.45.43-1.79 1.11l-.94 1.87c-.31.62-.95 1.02-1.66 1.02-1.02 0-1.85-.83-1.85-1.85v-14.15c0-1.1.9-2 2-2h12c1.1 0 2 .9 2 2z" fill="#e6e9ed"/></g><g><path d="m56 18c0 1.1-.9 2-2 2s-2-.9-2-2c0-1 2-4 2-4s2 3 2 4z" fill="#ff826e"/></g><g><path d="m33 28.21v3.79l-4 3-4-3v-3.79c1.11.51 2.33.79 3.59.79h.81c1.26 0 2.48-.28 3.6-.79z" fill="#f0d0b4"/></g><g><path d="m41.12 22.12c-.54.54-1.29.88-2.12.88h-1.4c.4-2.44.4-2.52.4-2.6v-3.4h1c.8 0 1.52.31 2.05.81.59.55.95 1.33.95 2.19 0 .83-.34 1.58-.88 2.12z" fill="#f0d0b4"/></g><g><path d="m38 20.4c0 .08 0 .16-.4 2.6l-1.05 2.17c-.89 1.34-2.13 2.38-3.55 3.04-1.12.51-2.34.79-3.6.79h-.81c-1.26 0-2.48-.28-3.59-.79-.16-.07-.31-.15-.46-.23-1.23-.66-2.3-1.62-3.09-2.81-.45-.67-.8-1.4-1.05-2.17-.26-.83-.4-1.71-.4-2.6v-3.4-1.64c0-.93.38-1.77.98-2.38.61-.6 1.44-.98 2.37-.98.43 0 .85.08 1.25.24 2.91 1.17 6.01 1.76 9.14 1.76h.26c1.1 0 2.09-.45 2.82-1.16.76.9 1.18 2.05 1.18 3.23v.93z" fill="#f0d0b4"/></g><g><path d="m20 20.4c0 .89.14 1.77.4 2.6h-1.4c-.83 0-1.58-.34-2.12-.88s-.88-1.29-.88-2.12c0-.86.36-1.64.95-2.19.53-.5 1.25-.81 2.05-.81h1z" fill="#f0d0b4"/></g><g><path d="m39 50v-4h8v5c0 2.76-2.24 5-5 5h-3-6c1.66 0 3-1.34 3-3 0-.83-.34-1.58-.88-2.12s-1.29-.88-2.12-.88z" fill="#f0d0b4"/></g><g><path d="m33 50c.83 0 1.58.34 2.12.88s.88 1.29.88 2.12c0 1.66-1.34 3-3 3h-14-3c-2.76 0-5-2.24-5-5v-5h8v4h7l.2-.39c.49-.99 1.5-1.61 2.6-1.61.77 0 1.51.31 2.05.85l1.15 1.15z" fill="#f0d0b4"/></g></g><g><path d="m30.726 26.003c1.09 0 2.114-.424 2.882-1.193l.1-.1-1.414-1.414-.101.101c-.616.616-1.614.779-2.395.388l-.7-.35c-1.538-.771-3.494-.449-4.702.759l-.099.099 1.406 1.422.104-.104c.616-.618 1.609-.78 2.395-.388l.7.35c.562.281 1.193.43 1.824.43z"/><path d="m23.556 16.168-1.112 1.664 1.753 1.17-1.751 1.166 1.108 1.664 4.249-2.828z"/><path d="m35.554 20.168-1.751-1.166 1.753-1.17-1.112-1.664-4.247 2.836 4.249 2.828z"/><path d="m48 42.804c0-3.352-1.477-6.503-4.05-8.647-1.659-1.382-3.668-2.254-5.81-2.521l-4.14-.519v-2.293c1.341-.733 2.51-1.783 3.387-3.098.363-.544.644-1.126.886-1.723h.727c2.206 0 4-1.794 4-4 0-.926-.329-1.769-.859-2.447l.509-2.037c.232-.927.35-1.88.35-2.834 0-6.444-5.241-11.685-11.685-11.685h-4.631c-6.443 0-11.684 5.241-11.684 11.685 0 .954.117 1.907.35 2.834l.509 2.038c-.53.678-.859 1.52-.859 2.446 0 2.206 1.794 4 4 4h.727c.243.597.524 1.179.886 1.723.877 1.315 2.045 2.366 3.387 3.098v2.293l-4.141.517c-2.142.268-4.15 1.14-5.809 2.521-2.573 2.146-4.05 5.297-4.05 8.649v8.196c0 3.309 2.691 6 6 6h2v6h22v-6h2c3.309 0 6-2.691 6-6zm-20.666-7.804-1.975 1.481-1.655-3.312 1.02-.127zm5.943-1.958 1.02.127-1.655 3.312-1.976-1.481zm5.723-11.039h-.146c.089-.528.146-1.062.146-1.604v-2.396c1.103 0 2 .897 2 2s-.897 2-2 2zm-20 0c-1.103 0-2-.897-2-2s.897-2 2-2v2.395c0 .543.057 1.077.147 1.605zm0-6.646v.646c-.495 0-.964.102-1.402.267l-.309-1.236c-.191-.768-.289-1.559-.289-2.349 0-5.34 4.345-9.685 9.685-9.685h4.631c5.339 0 9.684 4.345 9.684 9.685 0 .79-.098 1.581-.289 2.35l-.309 1.236c-.438-.165-.907-.267-1.402-.267h-.005c-.013-1.107-.329-2.187-.912-3.117.577-.817.917-1.811.917-2.884 0-2.757-2.243-5-5-5s-5 2.243-5 5v1h2v-1c0-1.654 1.346-3 3-3s3 1.346 3 3-1.346 3-3 3h-.261c-3.019 0-5.968-.568-8.77-1.688-.518-.207-1.062-.312-1.615-.312-2.401 0-4.354 1.953-4.354 4.354zm3.277 9.259c-.836-1.253-1.277-2.712-1.277-4.219v-5.04c0-1.298 1.057-2.354 2.354-2.354.299 0 .594.057.874.169 3.037 1.215 6.237 1.831 9.511 1.831h.261c.942 0 1.824-.262 2.578-.717.276.551.422 1.163.422 1.788v4.325c0 1.506-.441 2.964-1.277 4.217-1.413 2.119-3.776 3.384-6.321 3.384-.002 0-.004 0-.006 0l-.804-.001c-2.542-.001-4.904-1.266-6.315-3.383zm6.315 5.383.803.001h.007c.892 0 1.763-.135 2.599-.369v1.869l-3 2.25-3-2.25v-1.87c.833.235 1.701.369 2.591.369zm-13.261 5.694c1.363-1.138 3.016-1.854 4.776-2.074l1.491-.186 3.043 6.086 4.359-3.269 4.358 3.269 3.043-6.086 1.491.186c1.761.22 3.413.937 4.777 2.074 2.116 1.763 3.33 4.354 3.33 7.11v2.197h-6v-4h-2v8h-5-.586l-.855-.855c-.738-.739-1.718-1.145-2.762-1.145-1.428 0-2.718.761-3.41 2h-5.386v-8h-2v4h-6v-2.196c0-2.756 1.214-5.348 3.331-7.111zm-3.331 15.307v-4h6v2h-2v2h10.619l.472-.945c.325-.651.978-1.055 1.705-1.055.51 0 .988.198 1.349.559l1.441 1.441h1.414c1.103 0 2 .897 2 2s-.897 2-2 2h-17c-2.206 0-4-1.794-4-4zm26 10h-18v-4h18zm4-6h-5.556c.344-.591.556-1.268.556-2s-.212-1.409-.556-2h5.556v-2h-2v-2h6v4c0 2.206-1.794 4-4 4z"/><path d="m54 12.197-.832 1.248c-.652.978-2.168 3.379-2.168 4.555 0 1.654 1.346 3 3 3s3-1.346 3-3c0-1.176-1.516-3.577-2.168-4.555zm0 6.803c-.552 0-1-.448-1-.99.022-.292.436-1.15 1-2.119.562.965.975 1.82 1 2.116-.004.548-.451.993-1 .993z"/><path d="m60 9h-12c-1.654 0-3 1.346-3 3v14.146c0 1.574 1.28 2.854 2.854 2.854 1.088 0 2.065-.604 2.553-1.578l.935-1.869c.17-.341.512-.553.894-.553h7.764c1.654 0 3-1.346 3-3v-10c0-1.654-1.346-3-3-3zm1 13c0 .552-.448 1-1 1h-7.764c-1.144 0-2.172.636-2.684 1.658l-.935 1.869c-.144.292-.437.473-.763.473-.47 0-.854-.384-.854-.854v-14.146c0-.552.448-1 1-1h12c.552 0 1 .448 1 1z"/><path d="m6.35 52.728.241-.97c.112-.446.511-.758.971-.758h.438v-2h-.438c-1.379 0-2.576.935-2.911 2.272l-.241.97c-.113.446-.512.758-.972.758h-2.438v2h2.438c1.379 0 2.577-.935 2.912-2.272z"/><path d="m6.35 44.728.241-.97c.112-.446.511-.758.971-.758h.438v-2h-.438c-1.379 0-2.576.935-2.911 2.272l-.241.97c-.113.446-.512.758-.972.758h-2.438v2h2.438c1.379 0 2.577-.935 2.912-2.272z"/><path d="m8.895 55.435c-1.169.584-1.895 1.758-1.895 3.065 0 .544-.303 1.033-.789 1.276l-2.658 1.329.895 1.789 2.658-1.329c1.168-.584 1.894-1.758 1.894-3.065 0-.544.303-1.033.789-1.276l.658-.329-.895-1.789z"/><path d="m53.592 52.243-.243-.972c-.334-1.336-1.532-2.271-2.911-2.271h-.438v2h.438c.46 0 .858.312.97.757l.243.972c.334 1.336 1.532 2.271 2.911 2.271h2.438v-2h-2.438c-.46 0-.859-.312-.97-.757z"/><path d="m53.592 44.243-.243-.972c-.334-1.336-1.532-2.271-2.911-2.271h-.438v2h.438c.46 0 .858.312.97.757l.243.972c.334 1.336 1.532 2.271 2.911 2.271h2.438v-2h-2.438c-.46 0-.859-.312-.97-.757z"/><path d="m51 58.5c0-1.307-.726-2.481-1.895-3.065l-.658-.329-.895 1.789.658.329c.487.243.79.732.79 1.276 0 1.307.726 2.481 1.895 3.065l2.658 1.329.895-1.789-2.658-1.329c-.487-.243-.79-.732-.79-1.276z"/></g></g></svg>