<svg height="512" viewBox="0 0 64 64" width="512" xmlns="http://www.w3.org/2000/svg"><g id="School_bus" data-name="School bus"><path d="m61.01 30.97v4h-4.34a6 6 0 0 0 .34-2 5.761 5.761 0 0 0 -.35-2z" fill="#ff7956"/><path d="m56.67 34.97a5.99 5.99 0 0 1 -11.3.02 5.811 5.811 0 0 1 -.01-4 5.99 5.99 0 0 1 11.3-.02 5.761 5.761 0 0 1 .35 2 6 6 0 0 1 -.34 2z" fill="#898890"/><path d="m59 24.97a3.984 3.984 0 0 0 -4-3.99h-4l-.01-14a4 4 0 0 0 -4.01-3.99l-38 .04a3.984 3.984 0 0 0 -3.99 4l.02 23.97h2.34a5.992 5.992 0 0 1 11.31.02l26.35-.03h.35a5.99 5.99 0 0 1 11.3-.02h2.35z" fill="#ffde55"/><path d="m50.99 9 .01 8h-4v-8z" fill="#46f8ff"/><path d="m41 9h6v8h-6z" fill="#57a4ff"/><path d="m45.37 34.99h-.01l-26.7.03h-.01a5.97 5.97 0 0 0 .01-4l10.34-.01 8-.01 8.01-.01h.35a5.811 5.811 0 0 0 .01 4z" fill="#ff7956"/><path d="m37 23v8l-8 .01v-.01-8h4z" fill="#9cdd05"/><path d="m33 9h4v14h-4z" fill="#ff3051"/><path d="m29 9h4v14h-4z" fill="#c0ab91"/><path d="m19 9h6v6h-6z" fill="#46f8ff"/><path d="m18.66 31.02a5.97 5.97 0 0 1 -.01 4 6 6 0 0 1 -11.3-.02 5.889 5.889 0 0 1 0-4 5.992 5.992 0 0 1 11.31.02z" fill="#898890"/><path d="m9 9h6v6h-6z" fill="#46f8ff"/><path d="m5.01 31h2.34a5.889 5.889 0 0 0 0 4h-4.35v-4z" fill="#ff7956"/><path d="m2 43h60v18h-60z" fill="#898890"/><path d="m9 16h6a1 1 0 0 0 1-1v-6a1 1 0 0 0 -1-1h-6a1 1 0 0 0 -1 1v6a1 1 0 0 0 1 1zm1-6h4v4h-4z"/><path d="m19 16h6a1 1 0 0 0 1-1v-6a1 1 0 0 0 -1-1h-6a1 1 0 0 0 -1 1v6a1 1 0 0 0 1 1zm1-6h4v4h-4z"/><path d="m3 36h3.685a6.985 6.985 0 0 0 12.623.015l25.392-.028a6.974 6.974 0 0 0 6.315 3.993h.009a6.952 6.952 0 0 0 4.948-2.054 7.023 7.023 0 0 0 1.368-1.952h3.68a1 1 0 0 0 1-1v-4a1 1 0 0 0 -1-1h-1l-.006-5a5.005 5.005 0 0 0 -5-5h-3l-.014-13a5 5 0 0 0 -5-4.994h-.02l-38 .04a5.007 5.007 0 0 0 -4.995 5.011l.025 22.969h-1.01a1 1 0 0 0 -1 1v4a1 1 0 0 0 1 1zm10 2a5 5 0 1 1 5-5 5.006 5.006 0 0 1 -5 5zm6.918-3.986a7.065 7.065 0 0 0 .082-1.014 6.976 6.976 0 0 0 -.078-.986l24.17-.026a6.329 6.329 0 0 0 0 2zm16.082-12.014h-2v-12h2zm-4 0h-2v-12h2zm-2 2h6v6h-6zm16-2.014h4v4.08a6.981 6.981 0 0 0 -4 2.035zm8.551 14.527a4.965 4.965 0 0 1 -3.534 1.467h-.006a5 5 0 0 1 -.005-10h.005a5 5 0 0 1 3.54 8.533zm5.462-2.542h-2.079a6.323 6.323 0 0 0 0-2h2.08zm-5.013-11.994a3 3 0 0 1 3 3l.006 5h-.686a7.007 7.007 0 0 0 -5.319-3.915v-4.079zm-13-5.977v-6h4v6zm6-6h1.988l.012 6h-2zm-42.015-2.971a3 3 0 0 1 3-3l38-.04a3.108 3.108 0 0 1 2.122.876 2.982 2.982 0 0 1 .881 2.12v1.015h-8.988a1 1 0 0 0 -1 1v8a1 1 0 0 0 1 1h9v1.982h-5a1 1 0 0 0 -1 1l.01 9-6.01.012v-20.994a1 1 0 0 0 -1-1h-8a1 1 0 0 0 -1 1v21.005l-8.678.01a6.985 6.985 0 0 0 -12.637-.015h-.675zm-1.985 24.971h2.08a6.29 6.29 0 0 0 0 2h-2.08z"/><path d="m2 42h60v2h-60z"/><path d="m2 60h60v2h-60z"/><path d="m6 51h4v2h-4z"/><path d="m14 51h4v2h-4z"/><path d="m22 51h4v2h-4z"/><path d="m30 51h4v2h-4z"/><path d="m38 51h4v2h-4z"/><path d="m46 51h4v2h-4z"/><path d="m54 51h4v2h-4z"/></g></svg>